<mxfile host="app.diagrams.net" agent="Mozilla/5.0 (Windows NT 10.0; Win64; x64) AppleWebKit/537.36 (KHTML, like Gecko) Chrome/123.0.0.0 Safari/537.36 OPR/109.0.0.0" version="24.7.6">
  <diagram name="Página-1" id="DnJ5OVpcZv2MFke9pGJC">
    <mxGraphModel dx="1160" dy="616" grid="1" gridSize="10" guides="1" tooltips="1" connect="1" arrows="1" fold="1" page="1" pageScale="1" pageWidth="827" pageHeight="1169" math="0" shadow="0">
      <root>
        <mxCell id="0" />
        <mxCell id="1" parent="0" />
        <mxCell id="KxsLzRXTjlWjK1_D4bmC-1" value="" style="ellipse;whiteSpace=wrap;html=1;aspect=fixed;" vertex="1" parent="1">
          <mxGeometry x="440" y="40" width="40" height="40" as="geometry" />
        </mxCell>
        <mxCell id="KxsLzRXTjlWjK1_D4bmC-3" value="" style="endArrow=classic;html=1;rounded=0;" edge="1" parent="1" source="KxsLzRXTjlWjK1_D4bmC-1" target="KxsLzRXTjlWjK1_D4bmC-4">
          <mxGeometry width="50" height="50" relative="1" as="geometry">
            <mxPoint x="390" y="300" as="sourcePoint" />
            <mxPoint x="440" y="250" as="targetPoint" />
          </mxGeometry>
        </mxCell>
        <mxCell id="KxsLzRXTjlWjK1_D4bmC-26" value="" style="edgeStyle=orthogonalEdgeStyle;rounded=0;orthogonalLoop=1;jettySize=auto;html=1;" edge="1" parent="1" source="KxsLzRXTjlWjK1_D4bmC-4" target="KxsLzRXTjlWjK1_D4bmC-8">
          <mxGeometry relative="1" as="geometry" />
        </mxCell>
        <mxCell id="KxsLzRXTjlWjK1_D4bmC-4" value="Faz um exercício" style="rounded=1;whiteSpace=wrap;html=1;" vertex="1" parent="1">
          <mxGeometry x="400" y="120" width="120" height="60" as="geometry" />
        </mxCell>
        <mxCell id="KxsLzRXTjlWjK1_D4bmC-5" value="Notifica Aluno" style="rounded=1;whiteSpace=wrap;html=1;" vertex="1" parent="1">
          <mxGeometry x="320" y="410" width="120" height="60" as="geometry" />
        </mxCell>
        <mxCell id="KxsLzRXTjlWjK1_D4bmC-28" style="edgeStyle=orthogonalEdgeStyle;rounded=0;orthogonalLoop=1;jettySize=auto;html=1;entryX=1;entryY=0.5;entryDx=0;entryDy=0;" edge="1" parent="1" source="KxsLzRXTjlWjK1_D4bmC-8" target="KxsLzRXTjlWjK1_D4bmC-27">
          <mxGeometry relative="1" as="geometry" />
        </mxCell>
        <mxCell id="KxsLzRXTjlWjK1_D4bmC-35" value="" style="edgeStyle=orthogonalEdgeStyle;rounded=0;orthogonalLoop=1;jettySize=auto;html=1;" edge="1" parent="1" source="KxsLzRXTjlWjK1_D4bmC-8" target="KxsLzRXTjlWjK1_D4bmC-32">
          <mxGeometry relative="1" as="geometry" />
        </mxCell>
        <mxCell id="KxsLzRXTjlWjK1_D4bmC-8" value="" style="rhombus;whiteSpace=wrap;html=1;" vertex="1" parent="1">
          <mxGeometry x="440" y="240" width="40" height="40" as="geometry" />
        </mxCell>
        <mxCell id="KxsLzRXTjlWjK1_D4bmC-27" value="" style="ellipse;whiteSpace=wrap;html=1;aspect=fixed;" vertex="1" parent="1">
          <mxGeometry x="280" y="240" width="40" height="40" as="geometry" />
        </mxCell>
        <mxCell id="KxsLzRXTjlWjK1_D4bmC-29" value="[Reprovado]" style="text;html=1;align=center;verticalAlign=middle;resizable=0;points=[];autosize=1;strokeColor=none;fillColor=none;" vertex="1" parent="1">
          <mxGeometry x="340" y="260" width="90" height="30" as="geometry" />
        </mxCell>
        <mxCell id="KxsLzRXTjlWjK1_D4bmC-30" value="[Aprovado]" style="text;html=1;align=center;verticalAlign=middle;resizable=0;points=[];autosize=1;strokeColor=none;fillColor=none;" vertex="1" parent="1">
          <mxGeometry x="490" y="260" width="80" height="30" as="geometry" />
        </mxCell>
        <mxCell id="KxsLzRXTjlWjK1_D4bmC-31" value="" style="ellipse;whiteSpace=wrap;html=1;aspect=fixed;" vertex="1" parent="1">
          <mxGeometry x="440" y="530" width="40" height="40" as="geometry" />
        </mxCell>
        <mxCell id="KxsLzRXTjlWjK1_D4bmC-32" value="" style="rounded=0;whiteSpace=wrap;html=1;" vertex="1" parent="1">
          <mxGeometry x="420" y="330" width="80" height="10" as="geometry" />
        </mxCell>
        <mxCell id="KxsLzRXTjlWjK1_D4bmC-36" value="Aplica correções" style="rounded=1;whiteSpace=wrap;html=1;" vertex="1" parent="1">
          <mxGeometry x="480" y="410" width="120" height="60" as="geometry" />
        </mxCell>
        <mxCell id="KxsLzRXTjlWjK1_D4bmC-38" value="" style="endArrow=classic;html=1;rounded=0;entryX=0.5;entryY=0;entryDx=0;entryDy=0;" edge="1" parent="1" source="KxsLzRXTjlWjK1_D4bmC-32" target="KxsLzRXTjlWjK1_D4bmC-5">
          <mxGeometry width="50" height="50" relative="1" as="geometry">
            <mxPoint x="430" y="470" as="sourcePoint" />
            <mxPoint x="480" y="420" as="targetPoint" />
          </mxGeometry>
        </mxCell>
        <mxCell id="KxsLzRXTjlWjK1_D4bmC-39" value="" style="endArrow=classic;html=1;rounded=0;entryX=0.5;entryY=0;entryDx=0;entryDy=0;exitX=0.5;exitY=1;exitDx=0;exitDy=0;" edge="1" parent="1" source="KxsLzRXTjlWjK1_D4bmC-32" target="KxsLzRXTjlWjK1_D4bmC-36">
          <mxGeometry width="50" height="50" relative="1" as="geometry">
            <mxPoint x="466" y="353" as="sourcePoint" />
            <mxPoint x="370" y="410" as="targetPoint" />
          </mxGeometry>
        </mxCell>
        <mxCell id="KxsLzRXTjlWjK1_D4bmC-40" value="" style="endArrow=classic;html=1;rounded=0;exitX=0.5;exitY=1;exitDx=0;exitDy=0;" edge="1" parent="1" source="KxsLzRXTjlWjK1_D4bmC-36" target="KxsLzRXTjlWjK1_D4bmC-31">
          <mxGeometry width="50" height="50" relative="1" as="geometry">
            <mxPoint x="470" y="350" as="sourcePoint" />
            <mxPoint x="550" y="430" as="targetPoint" />
          </mxGeometry>
        </mxCell>
        <mxCell id="KxsLzRXTjlWjK1_D4bmC-41" value="" style="endArrow=classic;html=1;rounded=0;exitX=0.5;exitY=1;exitDx=0;exitDy=0;entryX=0;entryY=0;entryDx=0;entryDy=0;" edge="1" parent="1" source="KxsLzRXTjlWjK1_D4bmC-5" target="KxsLzRXTjlWjK1_D4bmC-31">
          <mxGeometry width="50" height="50" relative="1" as="geometry">
            <mxPoint x="550" y="490" as="sourcePoint" />
            <mxPoint x="486" y="538" as="targetPoint" />
          </mxGeometry>
        </mxCell>
      </root>
    </mxGraphModel>
  </diagram>
</mxfile>
